<svg id="logo" version="1.1" xmlns="http://www.w3.org/2000/svg" xmlns:xlink="http://www.w3.org/1999/xlink" width="400" height="400" viewBox="0, 0, 400,400"><g id="svgg"><path id="path0" d="M50.161 8.500 C 46.651 10.865,46.629 10.955,46.400 24.059 C 46.215 34.667,46.142 35.588,45.420 36.459 C 43.726 38.501,37.660 44.266,36.012 45.400 L 34.268 46.600 24.034 46.600 C 12.999 46.600,13.011 46.598,10.348 48.893 C 6.693 52.043,7.139 58.184,11.230 61.021 L 12.929 62.200 23.982 62.400 L 35.035 62.600 36.699 63.919 C 40.384 66.840,46.398 73.653,46.443 74.959 C 46.467 75.642,46.450 81.248,46.406 87.419 C 46.313 100.354,46.468 101.365,48.933 103.946 C 53.467 108.693,59.840 107.497,62.950 101.313 L 64.000 99.227 64.000 87.000 C 64.000 72.022,64.087 71.813,73.547 64.057 L 75.325 62.600 86.194 62.400 L 97.064 62.200 98.548 61.068 C 103.719 57.121,103.503 51.669,98.024 47.800 L 96.325 46.600 86.462 46.567 C 81.038 46.548,76.178 46.503,75.662 46.467 C 74.473 46.382,65.324 37.529,64.549 35.713 C 64.133 34.737,63.998 31.979,63.991 24.313 L 63.981 14.200 62.691 11.610 C 60.398 7.010,54.533 5.554,50.161 8.500 M335.400 16.006 C 332.070 16.642,326.089 18.323,324.230 19.145 C 323.168 19.615,322.065 20.000,321.780 20.000 C 321.495 20.000,320.753 20.418,320.131 20.928 C 319.509 21.438,317.780 22.530,316.289 23.354 C 312.244 25.588,304.412 33.455,301.907 37.798 C 297.228 45.912,295.794 51.613,295.819 62.000 C 295.830 66.553,296.027 70.466,296.292 71.400 C 296.542 72.280,297.042 74.067,297.404 75.370 C 297.964 77.388,299.341 80.339,301.969 85.155 C 303.959 88.800,309.437 94.819,312.800 97.053 C 314.230 98.003,316.475 99.520,317.789 100.423 C 320.316 102.160,321.574 102.713,326.400 104.207 C 328.050 104.718,330.093 105.430,330.940 105.790 C 335.444 107.703,350.408 107.476,354.809 105.428 C 356.014 104.867,357.305 104.406,357.678 104.404 C 358.618 104.398,364.907 101.828,366.275 100.889 C 366.894 100.465,367.782 99.866,368.249 99.559 C 373.833 95.882,379.733 89.949,382.600 85.127 C 385.190 80.771,386.504 77.873,387.643 74.000 L 388.996 69.400 388.971 60.600 C 388.947 52.090,388.911 51.702,387.873 48.830 C 387.283 47.196,386.800 45.583,386.800 45.244 C 386.800 44.044,382.955 36.915,380.619 33.783 C 377.865 30.092,369.234 22.400,367.846 22.400 C 367.629 22.400,367.036 22.010,366.528 21.532 C 364.918 20.020,356.466 17.111,350.400 15.983 C 348.187 15.571,337.591 15.587,335.400 16.006 M194.800 17.986 C 191.249 18.413,184.833 20.335,183.539 21.360 C 182.955 21.822,181.561 22.740,180.440 23.400 C 178.175 24.734,176.623 26.145,166.199 36.350 C 160.018 42.402,146.747 55.167,142.652 59.000 C 138.139 63.224,127.593 73.205,124.211 76.452 C 122.005 78.571,119.660 80.790,119.000 81.383 C 117.378 82.840,114.057 85.954,107.250 92.400 C 96.421 102.655,94.199 104.770,93.860 105.144 C 93.673 105.351,93.212 105.853,92.836 106.260 C 92.459 106.667,89.196 109.790,85.583 113.200 C 81.971 116.610,78.292 120.092,77.408 120.937 C 71.526 126.560,61.596 136.092,60.048 137.602 C 59.032 138.593,55.349 142.103,51.864 145.402 C 48.379 148.701,44.581 152.300,43.425 153.400 C 40.790 155.907,37.637 158.845,30.786 165.181 C 15.691 179.139,14.290 181.036,12.766 189.577 C 10.904 200.015,12.826 204.396,24.600 216.557 C 25.480 217.465,27.370 219.551,28.800 221.192 C 30.230 222.832,31.695 224.450,32.056 224.787 C 32.417 225.124,33.941 226.840,35.443 228.600 C 36.946 230.360,38.361 232.001,38.588 232.248 C 38.814 232.494,39.810 233.642,40.800 234.800 C 41.790 235.958,42.789 237.106,43.021 237.352 C 43.989 238.382,49.330 244.567,53.597 249.600 C 58.405 255.272,58.753 255.674,61.905 259.200 C 62.986 260.410,64.614 262.354,65.523 263.519 C 66.431 264.685,67.891 266.395,68.767 267.319 C 69.644 268.244,73.287 272.420,76.864 276.600 C 80.441 280.780,83.645 284.522,83.984 284.914 C 84.323 285.307,85.473 286.567,86.540 287.714 C 90.715 292.202,90.584 292.517,80.173 302.966 C 79.059 304.085,77.079 306.178,75.773 307.617 C 58.377 326.801,60.511 325.431,53.400 321.981 C 51.200 320.913,48.050 319.482,46.400 318.800 C 44.750 318.117,41.639 316.668,39.487 315.580 C 37.335 314.491,35.391 313.600,35.167 313.600 C 34.943 313.600,32.628 312.539,30.022 311.243 C 20.000 306.259,12.600 308.619,12.600 316.800 C 12.600 320.400,15.448 324.400,18.012 324.400 C 18.291 324.400,19.438 324.834,20.560 325.364 C 24.538 327.244,27.838 328.733,30.800 329.984 C 32.450 330.682,34.610 331.670,35.600 332.181 C 36.590 332.692,37.850 333.240,38.400 333.399 C 38.950 333.558,40.480 334.190,41.800 334.805 C 43.120 335.419,45.820 336.674,47.800 337.593 C 55.364 341.104,54.568 340.481,56.128 344.116 C 56.903 345.922,57.672 347.940,57.836 348.600 C 58.001 349.260,58.536 350.610,59.025 351.600 C 59.514 352.590,60.043 354.030,60.201 354.800 C 60.358 355.570,60.806 356.740,61.198 357.400 C 61.589 358.060,62.038 359.050,62.195 359.600 C 62.353 360.150,62.896 361.500,63.403 362.600 C 64.752 365.526,66.800 371.145,66.801 371.926 C 66.802 372.297,67.174 373.208,67.627 373.951 C 68.523 375.422,70.151 379.544,70.963 382.400 C 71.877 385.615,73.871 389.421,75.252 390.585 C 82.248 396.483,91.838 389.571,88.551 381.000 C 88.214 380.120,87.491 378.050,86.945 376.400 C 86.399 374.750,85.722 373.040,85.440 372.600 C 85.157 372.160,84.798 371.260,84.640 370.600 C 84.482 369.940,84.015 368.680,83.603 367.800 C 83.190 366.920,82.500 365.210,82.070 364.000 C 80.470 359.502,79.438 356.972,78.805 356.000 C 78.447 355.450,77.546 353.110,76.803 350.800 C 76.060 348.490,75.094 345.880,74.655 345.000 C 74.217 344.120,73.459 341.871,72.970 340.002 C 71.818 335.603,71.665 335.882,79.792 327.600 C 83.355 323.970,88.322 318.840,90.831 316.200 C 98.743 307.875,100.309 306.400,101.238 306.400 C 102.075 306.400,105.016 309.181,108.291 313.068 C 109.001 313.910,110.418 315.500,111.439 316.600 C 113.302 318.607,121.554 328.061,123.800 330.763 C 124.460 331.556,125.450 332.665,126.000 333.226 C 127.848 335.111,132.994 340.905,133.578 341.757 C 133.895 342.220,135.310 343.950,136.723 345.600 C 138.135 347.250,140.035 349.483,140.945 350.561 C 141.855 351.640,143.050 353.017,143.600 353.620 C 144.150 354.224,145.114 355.322,145.741 356.059 C 157.088 369.386,163.358 373.941,173.800 376.442 C 179.808 377.881,218.329 377.826,224.660 376.370 C 229.160 375.335,233.494 373.319,237.221 370.528 C 239.956 368.481,249.600 359.116,249.600 358.508 C 249.600 358.310,250.377 357.349,251.327 356.374 C 252.276 355.398,254.029 353.430,255.222 352.000 C 257.576 349.178,259.960 346.380,261.356 344.800 C 261.842 344.250,263.311 342.547,264.620 341.015 C 265.929 339.483,267.378 337.863,267.841 337.415 C 268.303 336.967,270.643 334.267,273.041 331.416 C 275.438 328.565,278.038 325.579,278.818 324.782 C 279.597 323.985,281.376 321.953,282.771 320.266 C 284.166 318.580,285.425 317.200,285.568 317.200 C 285.711 317.200,286.127 316.705,286.493 316.100 C 286.860 315.495,287.813 314.280,288.613 313.400 C 289.412 312.520,290.983 310.675,292.103 309.300 C 295.574 305.039,294.549 304.411,310.687 320.700 C 326.464 336.625,325.914 335.910,324.820 339.093 C 323.648 342.504,321.751 346.998,321.000 348.144 C 320.637 348.697,320.090 350.016,319.784 351.075 C 318.895 354.148,317.242 358.896,316.608 360.200 C 315.437 362.610,313.655 367.031,313.384 368.200 C 313.113 369.369,312.109 371.931,310.170 376.400 C 305.667 386.778,307.536 392.600,315.371 392.600 C 320.712 392.600,324.165 388.740,326.822 379.800 C 327.084 378.920,327.622 377.570,328.018 376.800 C 328.414 376.030,329.046 374.500,329.422 373.400 C 330.859 369.193,331.464 367.666,332.058 366.749 C 332.395 366.227,333.048 364.720,333.509 363.400 C 333.969 362.080,334.813 359.662,335.385 358.027 C 335.956 356.391,336.599 354.842,336.814 354.584 C 337.028 354.325,337.541 353.143,337.953 351.957 C 340.238 345.382,340.828 343.882,341.514 342.891 C 341.930 342.291,342.386 341.477,342.529 341.083 C 342.671 340.689,344.186 339.721,345.894 338.932 C 347.602 338.144,350.800 336.645,353.000 335.602 C 355.200 334.559,357.450 333.572,358.000 333.408 C 358.550 333.244,359.810 332.692,360.800 332.181 C 361.790 331.670,363.950 330.679,365.600 329.979 C 367.250 329.279,370.425 327.839,372.656 326.780 C 374.888 325.721,377.425 324.663,378.295 324.428 C 387.475 321.956,386.644 309.363,377.245 308.511 C 374.706 308.280,371.185 308.922,369.633 309.898 C 367.787 311.059,363.795 313.086,362.800 313.368 C 362.250 313.524,360.000 314.525,357.800 315.592 C 355.600 316.659,352.450 318.101,350.800 318.796 C 349.150 319.492,347.170 320.393,346.400 320.800 C 337.697 325.395,337.828 325.404,332.774 319.894 C 330.708 317.642,328.024 314.795,326.809 313.566 C 325.594 312.337,322.159 308.737,319.176 305.566 C 306.766 292.375,307.131 292.867,308.209 290.782 C 308.695 289.843,315.018 282.496,316.801 280.800 C 316.916 280.690,317.819 279.613,318.805 278.407 C 319.792 277.202,320.976 275.852,321.436 275.407 C 321.896 274.963,323.606 272.980,325.235 271.000 C 326.865 269.020,328.301 267.310,328.427 267.200 C 328.553 267.090,329.886 265.560,331.390 263.800 C 332.894 262.040,334.502 260.193,334.963 259.696 C 335.423 259.198,336.089 258.478,336.441 258.096 C 336.794 257.713,338.933 255.240,341.194 252.600 C 343.455 249.960,346.435 246.540,347.816 245.000 C 349.197 243.460,353.701 238.330,357.826 233.600 C 365.451 224.856,366.484 223.701,373.200 216.413 C 381.781 207.102,383.246 204.831,384.980 198.161 C 386.027 194.131,386.012 193.398,384.772 188.200 C 383.136 181.342,381.495 179.134,370.211 168.600 C 367.618 166.180,363.998 162.760,362.167 161.000 C 354.212 153.355,348.887 148.328,345.000 144.795 C 341.827 141.911,329.923 130.617,324.979 125.800 C 321.732 122.636,314.091 115.349,305.477 107.200 C 303.035 104.890,298.778 100.828,296.018 98.174 C 293.258 95.520,289.390 91.830,287.423 89.974 C 285.455 88.118,282.822 85.610,281.572 84.400 C 280.322 83.190,278.062 81.048,276.550 79.641 C 273.974 77.243,270.490 73.893,257.195 61.029 C 254.223 58.153,248.096 52.261,243.581 47.935 C 239.065 43.610,233.121 37.850,230.371 35.135 C 221.124 26.007,219.179 24.323,214.803 21.658 C 210.059 18.768,201.448 17.188,194.800 17.986 M351.727 43.665 C 354.517 44.880,355.438 45.525,357.960 48.031 C 362.394 52.437,364.152 56.387,364.180 62.007 C 364.272 81.020,341.327 90.559,327.363 77.312 C 325.059 75.127,324.377 74.096,321.729 68.800 C 317.857 61.053,323.264 48.713,332.483 44.256 C 338.542 41.326,345.842 41.102,351.727 43.665 M199.860 50.914 C 200.662 51.367,210.465 60.668,221.167 71.129 C 223.715 73.620,227.866 77.580,230.392 79.929 C 238.694 87.652,242.516 91.288,249.159 97.785 C 257.094 105.546,256.968 105.425,265.388 113.400 C 269.105 116.920,273.759 121.330,275.730 123.200 C 277.702 125.070,279.709 126.960,280.190 127.400 C 281.248 128.366,289.335 136.157,297.000 143.594 C 300.080 146.582,304.316 150.641,306.413 152.614 C 315.889 161.526,321.508 166.854,324.750 170.000 C 331.069 176.132,341.781 186.300,342.724 187.061 C 343.906 188.014,343.556 189.028,341.865 189.556 C 341.055 189.808,320.170 189.932,283.873 189.899 L 227.146 189.848 226.332 188.704 C 225.531 187.579,225.519 187.145,225.616 163.480 C 225.764 127.783,229.364 131.011,189.562 131.160 L 178.924 131.200 176.479 132.781 C 171.380 136.076,170.974 138.898,171.319 168.692 C 171.523 186.365,171.486 188.049,170.871 188.770 C 170.181 189.580,59.158 190.581,55.645 189.810 C 52.912 189.210,53.208 188.310,57.463 184.289 C 59.610 182.260,62.011 179.970,62.798 179.200 C 63.586 178.430,67.374 174.833,71.215 171.207 C 75.057 167.581,80.900 161.983,84.200 158.767 C 89.308 153.790,96.765 146.595,102.407 141.200 C 107.404 136.422,122.260 122.157,126.993 117.592 C 130.077 114.617,133.849 111.017,135.375 109.592 C 138.284 106.874,144.008 101.359,153.400 92.224 C 156.480 89.228,161.419 84.487,164.375 81.688 C 167.331 78.890,170.211 76.157,170.775 75.615 C 175.027 71.530,181.826 65.142,190.163 57.400 C 192.769 54.980,195.193 52.665,195.551 52.255 C 196.830 50.786,198.638 50.224,199.860 50.914 M58.569 52.769 C 60.975 55.232,59.001 60.000,55.574 60.000 C 54.154 60.000,51.023 57.051,51.397 56.067 C 51.509 55.774,51.600 55.230,51.600 54.858 C 51.600 51.528,56.054 50.192,58.569 52.769 M322.319 220.796 C 323.950 220.803,324.567 223.073,323.349 224.589 C 321.895 226.400,317.618 231.159,315.800 232.989 C 314.920 233.875,313.919 235.003,313.575 235.495 C 312.987 236.337,309.596 240.141,304.943 245.175 C 301.849 248.522,293.658 257.989,291.487 260.725 C 290.435 262.051,288.762 263.961,287.769 264.968 L 285.963 266.800 199.441 266.800 C 140.301 266.800,112.540 266.668,111.720 266.382 C 110.955 266.115,109.088 264.280,106.560 261.310 C 104.382 258.751,102.330 256.373,102.000 256.027 C 101.670 255.681,99.423 253.148,97.006 250.399 C 94.589 247.649,90.443 242.970,87.792 240.000 C 75.234 225.932,73.118 223.286,73.400 222.001 L 73.662 220.806 96.731 220.703 C 112.864 220.631,302.155 220.709,322.319 220.796 M256.539 299.549 C 257.942 300.714,256.818 302.317,248.865 310.505 C 246.811 312.620,244.651 314.970,244.065 315.728 C 242.685 317.514,237.255 323.674,236.576 324.225 C 236.287 324.459,235.365 325.464,234.526 326.459 C 230.499 331.231,221.280 341.580,219.747 343.048 C 216.685 345.981,217.385 345.890,198.400 345.826 L 181.400 345.768 179.771 344.579 C 178.876 343.925,177.526 342.674,176.771 341.799 C 176.017 340.924,175.100 339.936,174.734 339.604 C 174.367 339.272,172.317 336.930,170.178 334.400 C 168.039 331.870,165.963 329.440,165.565 329.000 C 165.166 328.560,164.336 327.627,163.720 326.926 C 162.144 325.133,156.436 318.913,155.000 317.422 C 154.340 316.737,152.810 315.021,151.600 313.609 C 150.390 312.196,148.609 310.132,147.642 309.020 C 146.675 307.909,145.654 306.730,145.372 306.400 C 145.090 306.070,143.925 304.771,142.783 303.512 C 140.603 301.110,140.284 299.505,141.900 299.070 C 143.854 298.545,255.892 299.013,256.539 299.549 M18.917 366.439 C 15.255 367.313,13.297 370.408,13.249 375.400 C 13.146 385.916,25.270 388.757,31.359 379.644 C 36.046 372.631,28.138 364.237,18.917 366.439 M370.946 366.381 C 365.519 367.675,362.671 375.661,365.928 380.447 C 369.628 385.883,377.113 386.692,381.259 382.104 C 388.552 374.031,381.831 363.785,370.946 366.381 " stroke="none" fill="#224548" fill-rule="evenodd"></path><path id="path1" d="M51.000 7.428 C 48.342 8.807,46.362 11.439,46.446 13.480 C 46.486 14.451,46.530 14.405,46.777 13.134 C 47.468 9.589,50.244 7.515,54.768 7.166 L 57.800 6.932 55.000 6.869 C 53.137 6.826,51.799 7.013,51.000 7.428 M58.778 7.641 C 59.317 7.856,59.955 8.160,60.197 8.316 C 60.440 8.472,60.294 8.285,59.875 7.900 C 59.455 7.515,58.816 7.211,58.456 7.225 C 58.041 7.241,58.160 7.394,58.778 7.641 M64.162 20.600 C 64.162 24.120,64.224 25.506,64.298 23.681 C 64.372 21.856,64.372 18.976,64.297 17.281 C 64.222 15.586,64.161 17.080,64.162 20.600 M341.116 15.497 C 342.499 15.575,344.659 15.574,345.916 15.495 C 347.172 15.416,346.040 15.352,343.400 15.353 C 340.760 15.353,339.732 15.418,341.116 15.497 M46.092 25.069 L 46.000 34.739 44.545 36.669 C 42.804 38.978,37.287 44.301,36.300 44.625 C 35.915 44.751,35.600 45.007,35.600 45.194 C 35.600 45.380,35.105 45.714,34.500 45.935 C 33.895 46.156,33.682 46.351,34.028 46.368 C 35.876 46.461,45.789 36.966,46.196 34.712 C 46.327 33.990,46.377 29.350,46.309 24.400 L 46.184 15.400 46.092 25.069 M331.600 16.600 C 330.830 16.897,330.470 17.139,330.800 17.139 C 331.130 17.139,332.030 16.897,332.800 16.600 C 333.570 16.303,333.930 16.061,333.600 16.061 C 333.270 16.061,332.370 16.303,331.600 16.600 M353.200 16.600 C 353.970 16.897,354.870 17.139,355.200 17.139 C 355.530 17.139,355.170 16.897,354.400 16.600 C 353.630 16.303,352.730 16.061,352.400 16.061 C 352.070 16.061,352.430 16.303,353.200 16.600 M194.505 17.887 C 195.114 17.979,196.014 17.977,196.505 17.882 C 196.997 17.787,196.500 17.711,195.400 17.714 C 194.300 17.717,193.897 17.795,194.505 17.887 M201.900 17.882 C 202.395 17.978,203.205 17.978,203.700 17.882 C 204.195 17.787,203.790 17.709,202.800 17.709 C 201.810 17.709,201.405 17.787,201.900 17.882 M189.200 18.800 C 186.853 19.785,187.565 19.793,190.600 18.816 C 191.996 18.366,192.582 18.043,192.000 18.044 C 191.450 18.044,190.190 18.385,189.200 18.800 M206.200 18.366 C 206.640 18.539,207.540 18.790,208.200 18.924 L 209.400 19.167 208.200 18.602 C 207.540 18.291,206.640 18.039,206.200 18.043 L 205.400 18.051 206.200 18.366 M324.576 18.595 C 323.866 19.138,323.911 19.152,325.100 18.755 C 326.457 18.303,326.768 18.000,325.876 18.000 C 325.589 18.000,325.004 18.268,324.576 18.595 M360.400 18.600 C 360.950 18.914,361.580 19.172,361.800 19.172 C 362.020 19.172,361.750 18.914,361.200 18.600 C 360.650 18.286,360.020 18.028,359.800 18.028 C 359.580 18.028,359.850 18.286,360.400 18.600 M320.015 20.582 C 319.749 20.902,318.356 21.811,316.918 22.601 C 314.639 23.853,306.800 30.195,306.800 30.786 C 306.800 30.905,305.986 31.876,304.991 32.944 C 303.996 34.013,303.001 35.273,302.779 35.744 C 302.550 36.232,302.769 36.085,303.289 35.400 C 305.795 32.100,313.658 24.808,316.259 23.370 C 319.069 21.818,321.561 20.000,320.880 20.000 C 320.670 20.000,320.281 20.262,320.015 20.582 M183.000 21.450 C 182.281 22.062,182.134 22.305,182.633 22.057 C 183.366 21.693,184.741 20.376,184.349 20.414 C 184.267 20.422,183.660 20.888,183.000 21.450 M366.488 21.413 C 367.086 22.043,367.647 22.477,367.735 22.379 C 367.823 22.280,367.333 21.765,366.647 21.234 L 365.400 20.269 366.488 21.413 M179.687 23.338 C 177.940 24.485,174.567 27.600,175.072 27.600 C 175.292 27.600,176.138 26.880,176.952 26.000 C 177.766 25.120,178.570 24.400,178.738 24.400 C 178.907 24.400,179.655 23.950,180.400 23.400 C 182.048 22.184,181.514 22.138,179.687 23.338 M371.000 24.273 C 371.220 24.456,372.014 25.145,372.765 25.803 C 374.104 26.978,374.116 26.980,373.365 25.927 C 372.944 25.337,372.150 24.649,371.600 24.397 C 371.050 24.145,370.780 24.089,371.000 24.273 M223.400 28.400 C 224.483 29.500,225.460 30.400,225.570 30.400 C 225.680 30.400,224.883 29.500,223.800 28.400 C 222.717 27.300,221.740 26.400,221.630 26.400 C 221.520 26.400,222.317 27.300,223.400 28.400 M375.800 28.400 C 376.659 29.280,377.452 30.000,377.562 30.000 C 377.672 30.000,377.059 29.280,376.200 28.400 C 375.341 27.520,374.548 26.800,374.438 26.800 C 374.328 26.800,374.941 27.520,375.800 28.400 M168.167 33.930 C 158.918 42.939,145.872 55.514,145.180 56.087 C 144.840 56.369,144.301 56.960,143.983 57.400 C 143.018 58.734,153.918 48.392,166.302 36.222 C 170.319 32.274,173.825 28.908,174.092 28.743 C 174.358 28.578,174.491 28.357,174.385 28.252 C 174.280 28.147,171.482 30.702,168.167 33.930 M226.400 30.988 C 227.464 32.344,234.783 39.499,234.013 38.431 C 233.605 37.864,231.589 35.785,229.535 33.812 C 227.481 31.838,226.070 30.568,226.400 30.988 M378.600 31.463 C 379.260 32.116,380.299 33.269,380.910 34.025 C 381.520 34.781,381.365 34.451,380.565 33.290 C 379.765 32.130,378.726 30.977,378.255 30.728 C 377.636 30.400,377.730 30.603,378.600 31.463 M64.040 33.513 C 63.980 34.871,64.950 36.869,66.218 38.000 C 67.306 38.970,67.302 38.952,66.084 37.400 C 65.393 36.520,64.660 35.080,64.454 34.200 C 64.226 33.225,64.065 32.957,64.040 33.513 M301.088 38.564 C 300.490 39.510,300.000 40.435,300.000 40.620 C 300.000 40.805,300.549 40.091,301.220 39.032 C 301.892 37.974,302.381 37.048,302.309 36.975 C 302.236 36.903,301.687 37.617,301.088 38.564 M71.275 42.947 C 73.186 44.846,75.076 46.389,75.475 46.375 C 76.121 46.352,76.113 46.313,75.400 46.017 C 74.960 45.835,73.070 44.293,71.200 42.590 L 67.800 39.494 71.275 42.947 M238.800 43.400 C 240.881 45.490,242.674 47.200,242.784 47.200 C 242.894 47.200,241.281 45.490,239.200 43.400 C 237.119 41.310,235.326 39.600,235.216 39.600 C 235.106 39.600,236.719 41.310,238.800 43.400 M384.406 39.659 C 384.403 39.802,384.940 40.945,385.600 42.200 C 386.260 43.455,386.800 44.276,386.800 44.025 C 386.800 43.319,384.422 38.983,384.406 39.659 M298.862 42.862 C 298.353 43.746,298.028 44.561,298.140 44.673 C 298.252 44.786,298.729 44.123,299.200 43.200 C 300.310 41.025,300.061 40.777,298.862 42.862 M340.486 42.058 C 334.813 42.569,330.821 44.404,326.977 48.267 C 318.352 56.935,318.511 68.915,327.363 77.312 C 341.327 90.559,364.272 81.020,364.180 62.007 C 364.149 55.599,361.671 50.958,355.487 45.727 C 352.423 43.134,345.990 41.561,340.486 42.058 M28.500 46.691 C 29.325 46.778,30.675 46.778,31.500 46.691 C 32.325 46.605,31.650 46.534,30.000 46.534 C 28.350 46.534,27.675 46.605,28.500 46.691 M77.700 46.691 C 78.525 46.778,79.875 46.778,80.700 46.691 C 81.525 46.605,80.850 46.534,79.200 46.534 C 77.550 46.534,76.875 46.605,77.700 46.691 M10.705 48.223 C 6.212 51.723,6.286 57.788,10.864 61.154 C 11.795 61.839,12.837 62.386,13.179 62.368 C 13.716 62.341,13.719 62.308,13.200 62.124 C 10.132 61.036,7.774 57.643,7.832 54.400 C 7.883 51.500,9.126 49.558,12.200 47.577 C 12.860 47.151,13.205 46.802,12.966 46.801 C 12.727 46.801,11.710 47.440,10.705 48.223 M98.278 47.957 C 99.156 48.594,100.351 49.719,100.933 50.457 C 101.515 51.196,101.993 51.593,101.996 51.340 C 102.001 50.784,97.712 46.800,97.108 46.800 C 96.872 46.800,97.399 47.321,98.278 47.957 M387.663 48.200 C 387.662 48.420,387.903 49.230,388.200 50.000 C 388.497 50.770,388.745 51.130,388.752 50.800 C 388.758 50.470,388.517 49.660,388.214 49.000 C 387.912 48.340,387.664 47.980,387.663 48.200 M247.755 52.012 C 249.930 54.096,252.090 56.064,252.555 56.386 C 253.020 56.709,251.649 55.289,249.510 53.231 C 247.370 51.173,245.210 49.204,244.710 48.857 C 244.209 48.509,245.580 49.929,247.755 52.012 M296.464 50.344 C 296.209 51.196,296.013 52.142,296.028 52.446 C 296.043 52.751,296.324 52.126,296.652 51.058 C 296.980 49.990,297.177 49.043,297.089 48.955 C 297.000 48.867,296.719 49.492,296.464 50.344 M197.400 50.970 C 196.740 51.267,195.908 51.845,195.551 52.255 C 195.193 52.665,192.769 54.980,190.163 57.400 C 181.826 65.142,175.027 71.530,170.775 75.615 C 170.211 76.157,167.331 78.890,164.375 81.688 C 161.419 84.487,156.480 89.228,153.400 92.224 C 144.008 101.359,138.284 106.874,135.375 109.592 C 133.849 111.017,130.077 114.617,126.993 117.592 C 122.260 122.157,107.404 136.422,102.407 141.200 C 96.765 146.595,89.308 153.790,84.200 158.767 C 80.900 161.983,75.057 167.581,71.215 171.207 C 67.374 174.833,63.586 178.430,62.798 179.200 C 62.011 179.970,59.610 182.260,57.463 184.289 C 53.208 188.310,52.912 189.210,55.645 189.810 C 59.158 190.581,170.181 189.580,170.871 188.770 C 171.486 188.049,171.523 186.365,171.319 168.692 C 170.974 138.898,171.380 136.076,176.479 132.781 L 178.924 131.200 189.562 131.160 C 215.882 131.061,217.963 131.140,220.317 132.321 C 225.848 135.098,225.736 134.441,225.616 163.480 C 225.519 187.145,225.531 187.579,226.332 188.704 L 227.146 189.848 283.873 189.899 C 320.170 189.932,341.055 189.808,341.865 189.556 C 343.556 189.028,343.906 188.014,342.724 187.061 C 341.781 186.300,331.069 176.132,324.750 170.000 C 321.508 166.854,315.889 161.526,306.413 152.614 C 304.316 150.641,300.080 146.582,297.000 143.594 C 289.335 136.157,281.248 128.366,280.190 127.400 C 279.709 126.960,277.702 125.070,275.730 123.200 C 273.759 121.330,269.105 116.920,265.388 113.400 C 256.968 105.425,257.094 105.546,249.159 97.785 C 242.516 91.288,238.694 87.652,230.392 79.929 C 227.866 77.580,223.715 73.620,221.167 71.129 C 210.465 60.668,200.662 51.367,199.860 50.914 C 198.801 50.316,198.860 50.314,197.400 50.970 M56.440 51.528 C 57.718 52.071,59.601 54.221,59.654 55.199 L 59.709 56.200 59.889 55.252 C 60.092 54.177,57.506 51.179,56.419 51.228 C 55.879 51.253,55.881 51.291,56.440 51.528 M295.701 55.000 C 295.705 55.880,295.787 56.193,295.883 55.695 C 295.979 55.198,295.975 54.478,295.875 54.095 C 295.775 53.713,295.696 54.120,295.701 55.000 M101.861 56.797 C 101.716 57.518,100.796 58.842,99.627 60.011 C 98.533 61.105,97.793 62.000,97.982 62.000 C 99.127 62.000,102.977 56.444,102.301 55.767 C 102.193 55.660,101.995 56.124,101.861 56.797 M58.681 57.318 C 58.285 57.803,57.809 58.450,57.622 58.756 C 57.436 59.062,56.590 59.446,55.742 59.610 L 54.200 59.908 55.520 59.954 C 56.753 59.997,59.592 57.732,59.598 56.700 C 59.601 56.259,59.476 56.343,58.681 57.318 M389.351 61.200 C 389.351 63.730,389.416 64.765,389.496 63.500 C 389.575 62.235,389.575 60.165,389.496 58.900 C 389.416 57.635,389.351 58.670,389.351 61.200 M142.188 58.929 C 141.746 59.408,140.668 60.446,139.792 61.236 C 138.917 62.026,137.750 63.196,137.200 63.836 C 136.650 64.476,137.550 63.751,139.200 62.225 C 140.850 60.698,142.459 59.218,142.776 58.934 C 143.093 58.651,143.271 58.338,143.172 58.238 C 143.072 58.139,142.629 58.450,142.188 58.929 M295.342 62.200 C 295.341 64.180,295.408 65.040,295.492 64.112 C 295.576 63.184,295.577 61.564,295.495 60.512 C 295.412 59.460,295.343 60.220,295.342 62.200 M257.024 60.800 C 257.864 61.878,262.368 66.126,264.000 67.380 C 264.550 67.802,264.100 67.300,263.000 66.264 C 261.900 65.228,259.930 63.349,258.622 62.090 C 257.314 60.830,256.595 60.250,257.024 60.800 M19.300 62.699 C 22.105 62.768,26.695 62.768,29.500 62.699 C 32.305 62.630,30.010 62.574,24.400 62.574 C 18.790 62.574,16.495 62.630,19.300 62.699 M81.123 62.699 C 83.831 62.768,88.151 62.768,90.723 62.699 C 93.295 62.629,91.080 62.572,85.800 62.573 C 80.520 62.573,78.415 62.630,81.123 62.699 M35.593 63.500 C 36.637 64.264,43.532 71.160,45.300 73.208 C 45.905 73.909,46.400 74.279,46.400 74.031 C 46.400 73.376,35.842 62.800,35.188 62.800 C 34.875 62.800,35.050 63.102,35.593 63.500 M72.597 64.929 C 67.308 69.626,64.398 72.760,64.401 73.755 C 64.402 74.000,64.743 73.660,65.159 73.000 C 66.427 70.987,73.290 64.451,75.329 63.314 C 75.906 62.992,75.996 62.824,75.597 62.814 C 75.265 62.806,73.915 63.758,72.597 64.929 M134.400 66.271 L 133.000 67.700 134.500 66.603 C 135.325 65.999,136.000 65.346,136.000 65.153 C 136.000 64.653,135.955 64.684,134.400 66.271 M388.901 68.600 C 388.905 69.480,388.987 69.793,389.083 69.295 C 389.179 68.798,389.175 68.078,389.075 67.695 C 388.975 67.313,388.896 67.720,388.901 68.600 M295.701 69.000 C 295.705 69.880,295.787 70.193,295.883 69.695 C 295.979 69.198,295.975 68.478,295.875 68.095 C 295.775 67.713,295.696 68.120,295.701 69.000 M129.836 70.612 C 128.756 71.598,127.957 72.490,128.060 72.593 C 128.164 72.697,129.131 71.886,130.209 70.791 C 132.645 68.318,132.450 68.224,129.836 70.612 M388.056 72.214 C 387.142 75.546,387.128 75.886,387.989 73.800 C 388.443 72.700,388.767 71.446,388.707 71.014 C 388.647 70.571,388.362 71.094,388.056 72.214 M272.254 75.512 C 276.982 80.079,286.788 89.416,289.600 92.029 C 290.370 92.744,293.254 95.505,296.010 98.165 C 305.337 107.167,312.414 113.799,312.851 113.948 C 313.090 114.029,312.431 113.309,311.387 112.348 C 310.344 111.386,308.652 109.790,307.629 108.800 C 306.605 107.810,301.922 103.310,297.221 98.800 C 292.520 94.290,287.848 89.790,286.837 88.800 C 285.827 87.810,283.229 85.380,281.064 83.400 C 278.899 81.420,275.040 77.775,272.488 75.300 C 269.937 72.825,267.748 70.805,267.624 70.812 C 267.501 70.819,269.584 72.934,272.254 75.512 M296.041 71.454 C 296.018 71.924,296.280 72.914,296.622 73.654 C 297.237 74.985,297.204 74.697,296.411 71.800 C 296.162 70.894,296.072 70.809,296.041 71.454 M64.178 86.800 C 64.178 93.730,64.233 96.565,64.299 93.100 C 64.366 89.635,64.366 83.965,64.299 80.500 C 64.233 77.035,64.178 79.870,64.178 86.800 M119.200 80.692 C 115.790 83.869,111.609 87.752,109.910 89.321 C 108.210 90.890,106.719 92.434,106.596 92.754 C 106.474 93.073,107.775 91.978,109.487 90.320 C 112.559 87.345,116.661 83.489,119.000 81.378 C 121.559 79.068,125.624 75.092,125.515 75.006 C 125.452 74.956,122.610 77.515,119.200 80.692 M46.501 77.400 C 46.505 78.280,46.587 78.593,46.683 78.095 C 46.779 77.598,46.775 76.878,46.675 76.495 C 46.575 76.113,46.496 76.520,46.501 77.400 M297.632 77.140 C 297.592 77.821,298.771 80.335,299.278 80.648 C 299.488 80.778,299.311 80.190,298.885 79.342 C 298.459 78.494,298.010 77.530,297.887 77.200 C 297.724 76.762,297.655 76.745,297.632 77.140 M385.768 79.455 C 385.311 80.394,385.087 81.070,385.271 80.956 C 385.746 80.663,386.873 78.405,386.724 78.046 C 386.656 77.881,386.226 78.515,385.768 79.455 M299.618 81.316 C 299.608 81.490,299.957 82.332,300.394 83.189 C 301.194 84.756,302.000 85.589,302.000 84.847 C 302.000 84.627,301.818 84.335,301.596 84.198 C 301.374 84.060,300.842 83.285,300.414 82.474 C 299.986 81.663,299.627 81.142,299.618 81.316 M384.011 82.774 C 383.738 83.434,383.263 84.181,382.957 84.436 C 382.651 84.690,382.400 85.080,382.400 85.303 C 382.400 85.776,383.660 84.220,384.373 82.866 C 384.643 82.352,384.784 81.851,384.686 81.753 C 384.588 81.655,384.284 82.114,384.011 82.774 M46.169 90.400 C 46.169 94.910,46.227 96.755,46.298 94.500 C 46.370 92.245,46.370 88.555,46.298 86.300 C 46.227 84.045,46.169 85.890,46.169 90.400 M302.000 85.766 C 302.000 86.456,305.109 90.328,307.969 93.200 C 310.884 96.127,310.547 95.619,307.175 92.000 C 306.252 91.010,304.710 89.129,303.749 87.820 C 302.787 86.511,302.000 85.587,302.000 85.766 M380.759 87.900 C 379.359 89.979,374.529 94.872,372.121 96.651 C 369.716 98.428,367.939 100.000,368.337 100.000 C 368.538 100.000,368.946 99.706,369.245 99.346 C 369.544 98.986,370.471 98.260,371.306 97.733 C 374.345 95.815,380.240 89.708,382.150 86.500 C 382.948 85.159,381.882 86.232,380.759 87.900 M100.600 98.288 C 97.740 101.083,95.755 103.107,96.189 102.785 C 96.623 102.463,98.063 101.145,99.389 99.855 C 100.715 98.565,102.340 97.021,103.000 96.424 C 104.426 95.135,106.210 93.199,105.970 93.202 C 105.876 93.203,103.460 95.492,100.600 98.288 M311.200 96.189 C 311.200 96.372,314.774 98.880,317.900 100.889 C 318.835 101.491,319.600 101.894,319.600 101.786 C 319.600 101.678,318.655 100.963,317.500 100.196 C 316.345 99.430,314.455 98.174,313.300 97.405 C 312.145 96.636,311.200 96.089,311.200 96.189 M46.594 100.716 C 46.890 102.743,50.743 106.821,52.327 106.784 C 52.715 106.775,52.492 106.541,51.800 106.229 C 50.093 105.462,47.335 102.449,46.831 100.800 L 46.403 99.400 46.594 100.716 M62.963 101.296 C 62.105 103.217,59.994 105.399,58.200 106.220 C 57.540 106.522,57.290 106.776,57.645 106.784 C 59.291 106.824,64.780 100.647,63.889 99.756 C 63.799 99.666,63.382 100.359,62.963 101.296 M366.102 100.925 C 365.412 101.434,363.491 102.368,361.833 103.001 C 360.175 103.633,358.891 104.224,358.980 104.313 C 359.291 104.625,365.410 101.948,366.600 100.980 C 368.124 99.740,367.761 99.700,366.102 100.925 M323.409 103.561 C 323.624 103.771,324.340 104.071,325.000 104.228 C 326.548 104.595,326.200 104.254,324.409 103.649 C 323.644 103.390,323.194 103.350,323.409 103.561 M329.200 105.400 C 329.750 105.714,330.380 105.972,330.600 105.972 C 330.820 105.972,330.550 105.714,330.000 105.400 C 329.450 105.086,328.820 104.828,328.600 104.828 C 328.380 104.828,328.650 105.086,329.200 105.400 M354.400 105.600 C 353.630 106.022,353.180 106.366,353.400 106.366 C 353.620 106.366,354.430 106.022,355.200 105.600 C 355.970 105.178,356.420 104.834,356.200 104.834 C 355.980 104.834,355.170 105.178,354.400 105.600 M92.750 105.900 C 91.948 106.794,86.446 112.011,79.575 118.393 C 76.619 121.139,71.860 125.664,69.000 128.448 C 66.140 131.232,62.720 134.535,61.400 135.787 C 56.337 140.590,45.771 150.663,44.393 152.000 C 41.650 154.661,36.133 159.826,28.797 166.600 C 16.994 177.498,13.957 181.101,13.390 184.880 L 13.191 186.200 13.696 184.800 C 15.427 179.993,18.090 176.937,30.786 165.185 C 37.820 158.675,40.857 155.843,43.425 153.400 C 44.581 152.300,48.379 148.701,51.864 145.402 C 55.349 142.103,59.032 138.593,60.048 137.602 C 61.596 136.092,71.526 126.560,77.408 120.937 C 85.713 112.997,92.147 106.976,92.446 106.865 C 92.791 106.737,93.767 105.200,93.503 105.200 C 93.434 105.200,93.095 105.515,92.750 105.900 M54.300 107.082 C 54.795 107.178,55.605 107.178,56.100 107.082 C 56.595 106.987,56.190 106.909,55.200 106.909 C 54.210 106.909,53.805 106.987,54.300 107.082 M336.100 107.087 C 336.705 107.178,337.695 107.178,338.300 107.087 C 338.905 106.995,338.410 106.920,337.200 106.920 C 335.990 106.920,335.495 106.995,336.100 107.087 M348.305 107.083 C 348.802 107.179,349.522 107.175,349.905 107.075 C 350.287 106.975,349.880 106.896,349.000 106.901 C 348.120 106.905,347.807 106.987,348.305 107.083 M341.491 107.489 C 342.201 107.577,343.461 107.579,344.291 107.492 C 345.121 107.405,344.540 107.333,343.000 107.331 C 341.460 107.329,340.781 107.400,341.491 107.489 M316.800 118.006 C 318.890 120.093,320.680 121.750,320.777 121.690 C 321.030 121.532,316.503 116.977,314.600 115.475 C 313.720 114.780,314.710 115.919,316.800 118.006 M324.372 125.072 C 324.607 125.552,325.384 126.332,326.099 126.807 L 327.400 127.669 326.400 126.806 C 325.850 126.331,325.073 125.550,324.673 125.071 L 323.946 124.200 324.372 125.072 M328.400 128.910 C 328.400 128.971,329.795 130.366,331.500 132.010 L 334.600 135.000 331.610 131.900 C 328.833 129.021,328.400 128.617,328.400 128.910 M337.800 137.946 C 338.240 138.466,340.580 140.713,343.000 142.939 C 345.420 145.166,347.040 146.554,346.600 146.025 C 346.160 145.495,345.094 144.418,344.231 143.631 C 343.368 142.844,342.378 141.918,342.031 141.573 C 340.353 139.907,337.096 137.114,337.800 137.946 M348.456 147.900 C 348.961 148.505,350.010 149.528,350.787 150.174 C 351.579 150.832,351.239 150.349,350.014 149.074 C 347.678 146.644,346.955 146.099,348.456 147.900 M355.400 154.374 C 355.840 154.910,356.820 155.900,357.578 156.574 C 358.335 157.248,359.415 158.313,359.978 158.939 C 360.540 159.565,361.360 160.271,361.800 160.506 C 362.240 160.742,361.953 160.320,361.163 159.568 C 356.704 155.325,354.692 153.512,355.400 154.374 M362.400 161.346 C 362.400 161.456,362.940 161.930,363.600 162.400 C 364.260 162.870,364.800 163.164,364.800 163.054 C 364.800 162.944,364.260 162.470,363.600 162.000 C 362.940 161.530,362.400 161.236,362.400 161.346 M364.839 163.700 C 364.935 163.755,365.820 164.520,366.806 165.400 L 368.600 167.000 367.019 165.300 C 366.149 164.365,365.264 163.600,365.052 163.600 C 364.840 163.600,364.744 163.645,364.839 163.700 M371.989 170.248 C 375.367 173.358,379.749 177.790,381.111 179.474 C 381.612 180.093,381.488 179.780,380.835 178.777 C 379.595 176.874,375.450 172.783,371.381 169.448 C 369.451 167.865,369.566 168.016,371.989 170.248 M384.998 188.600 C 385.896 193.712,385.931 194.495,385.363 196.678 C 384.648 199.423,384.879 199.961,385.635 197.311 C 386.299 194.984,386.196 191.620,385.388 189.200 C 385.051 188.191,384.880 187.927,384.998 188.600 M12.045 191.311 C 11.800 192.716,11.618 194.301,11.641 194.833 C 11.663 195.365,11.935 194.287,12.245 192.438 C 12.555 190.588,12.737 189.003,12.649 188.916 C 12.561 188.828,12.290 189.906,12.045 191.311 M12.080 197.000 C 12.080 197.440,12.224 198.250,12.400 198.800 C 12.654 199.592,12.720 199.633,12.720 199.000 C 12.720 198.560,12.576 197.750,12.400 197.200 C 12.146 196.408,12.080 196.367,12.080 197.000 M382.684 204.395 C 381.133 207.568,379.836 209.212,373.200 216.413 C 366.484 223.701,365.451 224.856,357.826 233.600 C 353.701 238.330,349.197 243.460,347.816 245.000 C 346.435 246.540,343.455 249.960,341.194 252.600 C 338.933 255.240,336.794 257.713,336.441 258.096 C 336.089 258.478,335.423 259.198,334.963 259.696 C 334.502 260.193,332.894 262.040,331.390 263.800 C 329.886 265.560,328.553 267.090,328.427 267.200 C 328.301 267.310,326.865 269.020,325.235 271.000 C 323.606 272.980,321.896 274.963,321.436 275.407 C 320.976 275.852,319.792 277.202,318.805 278.407 C 317.819 279.613,316.916 280.690,316.801 280.800 C 314.791 282.713,308.618 289.955,308.136 290.966 C 307.332 292.652,307.978 293.894,311.276 297.000 L 313.400 299.000 311.343 296.800 C 307.438 292.625,307.443 291.755,311.400 287.487 C 314.756 283.867,318.529 279.543,319.918 277.725 C 320.643 276.776,321.404 276.000,321.608 276.000 C 321.812 276.000,322.244 275.505,322.567 274.900 C 322.891 274.295,323.930 272.954,324.878 271.920 C 325.825 270.886,328.670 267.654,331.200 264.739 C 333.730 261.824,336.700 258.416,337.800 257.167 C 338.900 255.917,340.632 253.928,341.650 252.747 C 348.511 244.782,350.241 242.799,351.726 241.200 C 352.644 240.210,354.455 238.140,355.749 236.600 C 357.044 235.060,358.485 233.428,358.952 232.974 C 359.418 232.520,360.499 231.307,361.353 230.278 C 362.207 229.250,363.377 227.897,363.953 227.273 C 364.529 226.648,365.990 225.015,367.200 223.643 C 372.524 217.607,373.648 216.368,377.948 211.800 C 380.878 208.686,385.000 202.024,384.359 201.439 C 384.271 201.360,383.518 202.690,382.684 204.395 M13.232 202.320 C 13.196 202.898,14.307 205.200,14.621 205.200 C 14.731 205.200,14.571 204.705,14.265 204.100 C 13.960 203.495,13.609 202.730,13.486 202.400 C 13.336 201.997,13.253 201.971,13.232 202.320 M16.976 208.600 C 17.756 209.700,19.147 211.320,20.067 212.200 C 21.709 213.772,21.144 212.954,18.687 210.200 C 18.098 209.540,17.153 208.460,16.586 207.800 C 16.020 207.140,16.195 207.500,16.976 208.600 M25.007 217.468 C 25.728 218.121,26.792 219.307,32.641 225.978 C 33.498 226.956,35.073 228.666,36.141 229.778 C 37.352 231.040,37.063 230.597,35.372 228.600 C 33.882 226.840,31.992 224.680,31.173 223.800 C 30.353 222.920,28.823 221.210,27.773 220.000 C 26.723 218.790,25.489 217.561,25.032 217.268 C 24.200 216.736,24.200 216.736,25.007 217.468 M96.731 220.699 L 73.662 220.806 73.400 222.001 C 73.118 223.286,75.234 225.932,87.792 240.000 C 90.443 242.970,94.589 247.649,97.006 250.399 C 99.423 253.148,101.670 255.681,102.000 256.027 C 102.330 256.373,104.382 258.751,106.560 261.310 C 111.024 266.556,111.488 266.824,115.960 266.750 C 118.544 266.707,118.746 266.658,117.307 266.424 C 114.795 266.015,114.753 264.922,117.155 262.417 C 117.510 262.047,120.680 258.708,124.200 254.996 C 127.720 251.283,135.135 243.646,140.678 238.023 C 146.220 232.400,151.980 226.533,153.478 224.984 C 157.099 221.238,157.255 221.200,169.213 221.200 C 174.559 221.200,178.858 221.127,178.767 221.037 C 178.524 220.799,123.645 220.573,96.731 220.699 M222.200 220.808 L 208.200 221.016 223.477 221.108 C 241.958 221.219,238.812 219.949,250.915 232.185 C 255.928 237.253,265.039 246.440,271.161 252.600 C 281.390 262.891,283.354 265.180,282.603 265.930 C 282.455 266.079,245.943 266.291,201.467 266.402 L 120.600 266.604 203.281 266.702 L 285.963 266.800 287.769 264.968 C 288.762 263.961,290.435 262.051,291.487 260.725 C 293.658 257.989,301.849 248.522,304.943 245.175 C 309.596 240.141,312.987 236.337,313.575 235.495 C 313.919 235.003,314.920 233.875,315.800 232.989 C 317.618 231.159,321.895 226.400,323.349 224.589 C 324.648 222.971,323.952 220.814,322.119 220.777 C 314.680 220.627,232.675 220.652,222.200 220.808 M40.232 234.700 C 41.514 236.185,42.871 237.708,43.247 238.084 C 43.624 238.460,44.173 239.090,44.466 239.484 C 44.760 239.878,45.360 240.470,45.800 240.800 C 46.240 241.130,45.885 240.590,45.011 239.600 C 44.136 238.610,43.146 237.476,42.811 237.080 C 42.475 236.683,41.436 235.513,40.502 234.480 C 39.568 233.446,38.803 232.465,38.802 232.300 C 38.801 232.135,38.598 232.000,38.351 232.000 C 38.104 232.000,38.951 233.215,40.232 234.700 M49.303 245.059 C 50.963 247.027,52.647 248.898,53.045 249.218 C 53.443 249.538,52.276 248.047,50.452 245.904 C 48.628 243.761,46.944 241.889,46.710 241.744 C 46.476 241.600,47.642 243.091,49.303 245.059 M55.600 252.525 C 55.600 252.594,56.185 253.179,56.900 253.825 L 58.200 255.000 57.025 253.700 C 55.930 252.488,55.600 252.216,55.600 252.525 M59.600 256.971 C 59.600 257.101,60.545 258.256,61.700 259.537 C 62.855 260.819,64.488 262.663,65.329 263.634 L 66.859 265.400 65.281 263.312 C 63.517 260.979,59.600 256.607,59.600 256.971 M70.800 270.125 C 70.800 270.194,71.385 270.779,72.100 271.425 L 73.400 272.600 72.225 271.300 C 71.130 270.088,70.800 269.816,70.800 270.125 M80.149 280.918 C 81.441 282.393,82.584 283.600,82.688 283.600 C 82.953 283.600,78.824 278.861,78.259 278.517 C 78.006 278.363,78.857 279.443,80.149 280.918 M84.220 285.707 C 84.410 286.202,86.800 288.234,86.800 287.900 C 86.800 287.832,86.170 287.182,85.400 286.456 C 84.630 285.729,84.099 285.392,84.220 285.707 M87.645 289.381 C 88.000 289.831,88.490 290.560,88.733 291.000 C 88.977 291.440,89.181 291.578,89.188 291.306 C 89.195 291.035,88.705 290.306,88.100 289.687 C 87.495 289.068,87.290 288.930,87.645 289.381 M84.959 297.427 C 83.001 299.532,81.333 301.467,81.250 301.727 C 81.168 301.987,81.798 301.390,82.650 300.401 C 83.503 299.411,84.672 298.151,85.249 297.601 C 86.595 296.317,88.939 293.600,88.700 293.600 C 88.600 293.600,86.916 295.322,84.959 297.427 M141.900 299.070 C 140.284 299.505,140.603 301.110,142.783 303.512 C 143.925 304.771,145.090 306.070,145.372 306.400 C 145.654 306.730,146.675 307.909,147.642 309.020 C 148.609 310.132,150.390 312.196,151.600 313.609 C 152.810 315.021,154.340 316.737,155.000 317.422 C 156.436 318.913,162.144 325.133,163.720 326.926 C 164.336 327.627,165.166 328.560,165.565 329.000 C 165.963 329.440,168.039 331.870,170.178 334.400 C 172.317 336.930,174.367 339.272,174.734 339.604 C 175.100 339.936,176.017 340.924,176.771 341.799 C 177.526 342.674,178.876 343.925,179.771 344.579 L 181.400 345.768 198.400 345.826 C 217.385 345.890,216.685 345.981,219.747 343.048 C 221.280 341.580,230.499 331.231,234.526 326.459 C 235.365 325.464,236.287 324.459,236.576 324.225 C 237.255 323.674,242.685 317.514,244.065 315.728 C 244.651 314.970,246.811 312.620,248.865 310.505 C 256.818 302.317,257.942 300.714,256.539 299.549 C 255.892 299.013,143.854 298.545,141.900 299.070 M316.200 302.400 C 317.950 304.160,319.471 305.600,319.581 305.600 C 319.691 305.600,318.350 304.160,316.600 302.400 C 314.850 300.640,313.329 299.200,313.219 299.200 C 313.109 299.200,314.450 300.640,316.200 302.400 M322.000 308.573 C 323.430 310.076,325.593 312.317,326.806 313.553 C 328.019 314.789,330.789 317.690,332.961 320.000 C 336.056 323.291,336.272 323.471,333.956 320.833 C 330.051 316.384,322.111 308.054,320.600 306.820 C 319.940 306.281,320.570 307.070,322.000 308.573 M97.876 308.900 C 96.510 310.275,93.340 313.560,90.831 316.200 C 88.322 318.840,83.355 323.970,79.792 327.600 C 72.873 334.650,71.768 336.153,72.378 337.674 C 72.745 338.590,72.750 338.589,72.775 337.526 C 72.825 335.401,73.697 334.248,80.101 327.846 C 83.675 324.272,88.753 319.020,91.384 316.174 C 100.831 305.958,100.898 305.913,103.486 308.051 L 105.000 309.302 103.506 307.851 C 101.454 305.858,100.771 305.986,97.876 308.900 M292.103 309.300 C 290.983 310.675,289.412 312.520,288.613 313.400 C 287.813 314.280,286.860 315.495,286.493 316.100 C 286.127 316.705,285.711 317.200,285.568 317.200 C 285.425 317.200,284.166 318.580,282.771 320.266 C 281.376 321.953,279.597 323.985,278.818 324.782 C 278.038 325.579,275.438 328.565,273.041 331.416 C 270.643 334.267,268.303 336.967,267.841 337.415 C 267.378 337.863,265.929 339.483,264.620 341.015 C 263.311 342.547,261.842 344.250,261.356 344.800 C 259.960 346.380,257.576 349.178,255.222 352.000 C 254.029 353.430,252.276 355.398,251.327 356.374 C 250.377 357.349,249.600 358.295,249.600 358.476 C 249.600 359.642,237.916 370.346,234.200 372.583 C 231.818 374.017,231.463 374.505,233.609 373.395 C 238.257 370.992,243.850 365.828,251.800 356.600 C 252.900 355.323,254.210 353.811,254.711 353.239 C 255.212 352.668,256.903 350.670,258.470 348.800 C 260.036 346.930,262.146 344.492,263.158 343.381 C 264.171 342.271,265.990 340.214,267.200 338.810 C 268.410 337.407,270.842 334.625,272.604 332.629 C 274.366 330.633,276.518 328.114,277.387 327.032 C 278.255 325.950,279.637 324.379,280.457 323.542 C 281.278 322.704,282.100 321.750,282.284 321.421 C 282.468 321.093,283.424 319.980,284.409 318.949 C 285.394 317.917,286.560 316.593,287.000 316.005 C 287.844 314.878,291.335 310.771,292.470 309.569 C 292.838 309.180,293.339 308.487,293.584 308.030 C 294.164 306.946,296.892 306.859,297.695 307.900 C 297.991 308.285,299.217 309.499,300.417 310.598 C 302.163 312.196,302.041 312.016,299.811 309.698 C 296.019 305.759,295.030 305.707,292.103 309.300 M19.067 308.345 C 18.664 308.504,19.692 308.626,21.351 308.617 C 23.010 308.608,24.059 308.478,23.683 308.328 C 22.783 307.970,19.993 307.980,19.067 308.345 M373.115 308.328 C 372.738 308.478,374.036 308.600,376.000 308.600 C 377.964 308.600,379.262 308.478,378.885 308.328 C 378.508 308.179,377.210 308.056,376.000 308.056 C 374.790 308.056,373.492 308.179,373.115 308.328 M15.355 310.020 C 11.121 313.344,11.048 320.523,15.219 323.413 C 16.096 324.021,16.897 324.436,16.999 324.335 C 17.100 324.233,16.474 323.711,15.606 323.175 C 10.932 320.285,11.795 311.742,17.000 309.377 C 17.660 309.077,17.910 308.824,17.555 308.816 C 17.200 308.807,16.210 309.349,15.355 310.020 M71.800 311.495 C 70.480 312.962,69.648 314.012,69.951 313.827 C 70.850 313.277,74.785 308.764,74.323 308.813 C 74.255 308.820,73.120 310.027,71.800 311.495 M380.600 309.268 C 381.040 309.512,381.679 309.912,382.020 310.156 C 382.360 310.400,382.215 310.195,381.697 309.700 C 381.179 309.205,380.540 308.805,380.278 308.812 C 380.015 308.819,380.160 309.024,380.600 309.268 M368.856 310.013 C 367.616 311.046,368.175 311.035,369.491 310.000 C 370.050 309.560,370.349 309.206,370.154 309.213 C 369.959 309.221,369.375 309.581,368.856 310.013 M105.999 310.700 C 106.522 311.415,107.013 312.000,107.089 312.000 C 107.393 312.000,106.401 310.500,105.745 309.967 C 105.313 309.616,105.410 309.896,105.999 310.700 M364.800 312.016 C 363.590 312.667,362.369 313.200,362.086 313.200 C 361.803 313.200,360.633 313.738,359.486 314.396 C 358.339 315.054,357.564 315.594,357.765 315.596 C 357.966 315.598,358.866 315.172,359.765 314.648 C 360.664 314.125,361.940 313.580,362.600 313.436 C 363.802 313.175,368.153 310.806,367.400 310.823 C 367.180 310.828,366.010 311.365,364.800 312.016 M108.985 314.355 C 110.077 315.480,111.043 316.400,111.131 316.400 C 111.451 316.400,108.581 313.314,107.800 312.817 C 107.360 312.538,107.893 313.230,108.985 314.355 M66.063 317.712 C 64.267 319.534,62.505 321.444,62.146 321.956 C 61.787 322.468,60.753 323.223,59.847 323.635 C 58.941 324.046,58.437 324.386,58.726 324.391 C 60.059 324.413,60.853 323.717,67.718 316.500 C 70.897 313.159,69.655 314.068,66.063 317.712 M355.000 316.610 C 354.120 317.152,353.580 317.591,353.800 317.585 C 354.020 317.580,354.920 317.132,355.800 316.590 C 356.680 316.048,357.220 315.609,357.000 315.615 C 356.780 315.620,355.880 316.068,355.000 316.610 M308.200 318.800 C 309.059 319.680,309.852 320.400,309.962 320.400 C 310.072 320.400,309.459 319.680,308.600 318.800 C 307.741 317.920,306.948 317.200,306.838 317.200 C 306.728 317.200,307.341 317.920,308.200 318.800 M349.810 318.813 C 346.685 320.365,347.578 320.355,350.864 318.800 C 352.259 318.140,353.130 317.606,352.800 317.613 C 352.470 317.620,351.125 318.159,349.810 318.813 M112.800 318.255 C 112.800 318.468,113.475 319.263,114.300 320.022 L 115.800 321.400 114.400 319.804 C 113.630 318.927,112.955 318.132,112.900 318.038 C 112.845 317.944,112.800 318.041,112.800 318.255 M50.033 320.128 C 50.669 320.615,53.200 321.936,53.200 321.781 C 53.200 321.513,50.682 320.003,50.233 320.001 C 50.032 320.001,49.942 320.057,50.033 320.128 M344.894 321.080 C 343.977 321.675,343.304 322.237,343.396 322.330 C 343.489 322.423,344.414 321.936,345.451 321.249 C 346.488 320.562,347.162 320.000,346.949 320.000 C 346.735 320.000,345.810 320.486,344.894 321.080 M312.383 322.900 C 314.041 324.666,314.400 324.984,314.400 324.683 C 314.400 324.619,313.545 323.764,312.500 322.783 L 310.600 321.000 312.383 322.900 M381.055 323.041 C 379.985 323.789,379.283 324.400,379.495 324.400 C 379.929 324.400,383.200 322.103,383.200 321.797 C 383.200 321.534,383.271 321.493,381.055 323.041 M55.562 323.028 C 56.751 323.568,57.792 323.942,57.874 323.859 C 58.048 323.685,54.214 321.989,53.726 322.023 C 53.547 322.036,54.373 322.488,55.562 323.028 M341.000 323.084 C 340.340 323.443,339.260 323.868,338.600 324.027 C 337.517 324.290,337.497 324.320,338.400 324.341 C 338.950 324.354,340.210 323.930,341.200 323.400 C 342.190 322.870,342.820 322.435,342.600 322.434 C 342.380 322.433,341.660 322.726,341.000 323.084 M119.660 326.341 C 120.837 327.739,122.492 329.629,123.338 330.541 L 124.876 332.200 123.256 330.200 C 122.365 329.100,120.710 327.210,119.578 326.000 L 117.521 323.800 119.660 326.341 M19.200 324.990 C 19.200 325.224,21.439 326.401,21.880 326.399 C 22.056 326.398,21.611 326.038,20.890 325.599 C 19.551 324.782,19.200 324.656,19.200 324.990 M374.800 325.800 C 373.810 326.330,373.180 326.764,373.400 326.764 C 373.620 326.764,374.610 326.330,375.600 325.800 C 376.590 325.270,377.220 324.836,377.000 324.836 C 376.780 324.836,375.790 325.270,374.800 325.800 M25.157 327.814 C 26.124 328.367,26.996 328.737,27.096 328.637 C 27.289 328.444,24.250 326.797,23.716 326.805 C 23.542 326.807,24.191 327.262,25.157 327.814 M317.484 327.800 C 317.953 328.460,319.455 330.080,320.823 331.400 C 324.205 334.665,325.312 336.452,324.796 337.811 C 324.172 339.452,324.365 339.952,325.031 338.419 C 325.888 336.442,325.422 335.619,320.696 330.771 C 318.460 328.477,317.015 327.140,317.484 327.800 M370.000 328.016 C 368.790 328.667,368.031 329.200,368.314 329.200 C 368.597 329.200,369.767 328.662,370.914 328.004 C 373.609 326.458,372.876 326.468,370.000 328.016 M31.400 330.580 C 34.044 331.892,35.255 332.321,34.676 331.743 C 34.417 331.484,30.319 329.709,29.200 329.372 C 28.870 329.272,29.860 329.816,31.400 330.580 M365.000 330.226 C 363.900 330.756,363.270 331.184,363.600 331.177 C 363.930 331.170,365.010 330.730,366.000 330.200 C 368.326 328.955,367.601 328.974,365.000 330.226 M359.400 332.822 C 358.520 333.238,358.034 333.584,358.320 333.590 C 358.902 333.601,361.200 332.484,361.200 332.190 C 361.200 331.956,361.318 331.914,359.400 332.822 M41.117 334.857 C 41.841 335.320,42.527 335.606,42.642 335.492 C 42.756 335.377,42.271 334.995,41.563 334.642 C 39.770 333.747,39.549 333.853,41.117 334.857 M353.800 335.244 C 352.480 335.891,351.850 336.305,352.400 336.165 C 353.775 335.816,355.967 334.777,356.230 334.351 C 356.506 333.905,356.621 333.863,353.800 335.244 M126.800 334.525 C 126.800 334.594,127.385 335.179,128.100 335.825 L 129.400 337.000 128.225 335.700 C 127.130 334.488,126.800 334.216,126.800 334.525 M45.200 336.590 C 45.200 336.824,47.439 338.001,47.880 337.999 C 48.056 337.998,47.611 337.638,46.890 337.199 C 45.551 336.382,45.200 336.256,45.200 336.590 M51.200 339.528 C 54.138 340.970,54.231 341.062,55.714 344.000 C 57.406 347.352,57.438 347.069,55.793 343.308 C 54.776 340.985,50.419 337.837,48.485 338.028 C 48.328 338.044,49.550 338.719,51.200 339.528 M130.413 338.233 C 130.430 338.722,131.192 339.624,132.407 340.591 C 133.052 341.105,132.909 340.826,132.000 339.796 C 131.230 338.923,130.555 338.132,130.500 338.038 C 130.445 337.944,130.406 338.032,130.413 338.233 M345.135 339.208 C 343.767 339.914,342.649 340.818,342.313 341.489 C 342.006 342.100,341.429 343.140,341.030 343.800 L 340.305 345.000 341.144 344.000 C 341.605 343.450,342.256 342.433,342.591 341.739 C 342.931 341.036,343.687 340.308,344.300 340.094 C 345.600 339.641,348.378 337.995,347.800 338.021 C 347.580 338.030,346.381 338.565,345.135 339.208 M73.228 341.000 C 73.198 341.937,75.524 346.893,75.569 345.989 C 75.586 345.653,75.305 344.956,74.944 344.441 C 74.583 343.925,74.055 342.760,73.770 341.852 C 73.486 340.943,73.242 340.560,73.228 341.000 M133.536 342.200 C 133.774 342.640,135.075 344.170,136.426 345.600 L 138.882 348.200 136.363 345.200 C 133.180 341.409,133.008 341.227,133.536 342.200 M320.787 347.821 C 320.304 348.603,319.977 349.311,320.061 349.394 C 320.145 349.478,320.620 348.838,321.118 347.973 C 322.247 346.013,321.980 345.890,320.787 347.821 M75.620 347.051 C 75.609 347.300,76.041 348.650,76.580 350.051 C 77.120 351.453,77.570 352.397,77.580 352.149 C 77.591 351.900,77.159 350.550,76.620 349.149 C 76.080 347.747,75.630 346.803,75.620 347.051 M339.286 348.261 C 339.039 349.065,338.996 349.560,339.190 349.361 C 339.582 348.961,340.189 346.800,339.910 346.800 C 339.814 346.800,339.532 347.458,339.286 348.261 M139.775 349.732 C 140.391 350.539,140.976 351.200,141.075 351.200 C 141.353 351.200,139.621 348.860,139.109 348.544 C 138.859 348.389,139.159 348.924,139.775 349.732 M141.615 351.400 C 141.617 351.620,141.986 352.250,142.436 352.800 C 142.979 353.464,143.115 353.531,142.840 353.000 C 142.166 351.695,141.612 350.972,141.615 351.400 M318.672 353.419 C 318.302 354.193,318.004 355.046,318.009 355.314 C 318.014 355.581,318.377 355.008,318.816 354.040 C 319.767 351.944,319.639 351.391,318.672 353.419 M144.166 354.652 C 144.498 355.340,145.090 356.026,145.480 356.176 C 146.158 356.435,146.157 356.414,145.477 355.724 C 145.084 355.326,144.493 354.640,144.162 354.200 C 143.633 353.495,143.633 353.549,144.166 354.652 M336.679 354.774 C 335.704 356.425,335.853 356.851,336.857 355.283 C 337.320 354.559,337.623 353.890,337.529 353.796 C 337.435 353.702,337.052 354.142,336.679 354.774 M78.000 354.638 C 78.000 354.769,78.334 355.354,78.743 355.938 C 79.152 356.522,79.693 357.540,79.945 358.200 L 80.405 359.400 80.171 358.200 C 79.863 356.615,78.000 353.559,78.000 354.638 M60.403 356.490 C 60.401 356.650,60.759 357.370,61.199 358.090 C 61.638 358.811,61.996 359.220,61.996 359.000 C 61.995 358.780,61.637 358.060,61.200 357.400 C 60.763 356.740,60.404 356.331,60.403 356.490 M148.012 359.200 C 150.432 362.108,157.985 369.600,158.497 369.600 C 158.679 369.600,157.406 368.346,155.670 366.813 C 153.933 365.280,151.512 362.805,150.290 361.313 C 149.069 359.821,147.570 358.150,146.959 357.600 C 146.348 357.050,146.822 357.770,148.012 359.200 M334.667 360.067 C 333.813 362.239,334.060 362.486,335.000 360.400 C 335.399 359.516,335.635 358.702,335.525 358.592 C 335.415 358.481,335.029 359.145,334.667 360.067 M80.418 359.660 C 80.408 359.803,80.848 360.883,81.396 362.060 C 81.944 363.237,82.386 363.930,82.378 363.600 C 82.364 363.004,80.453 359.162,80.418 359.660 M314.255 364.750 C 313.675 366.043,313.204 367.348,313.209 367.650 C 313.215 367.953,313.675 367.120,314.233 365.800 C 314.791 364.480,315.346 363.175,315.466 362.900 C 315.587 362.625,315.601 362.400,315.497 362.400 C 315.394 362.400,314.835 363.458,314.255 364.750 M333.041 364.579 C 332.879 365.224,332.385 366.260,331.942 366.881 C 331.499 367.503,331.199 368.198,331.275 368.425 C 331.351 368.653,331.920 367.839,332.539 366.616 C 333.158 365.393,333.590 364.171,333.500 363.900 C 333.409 363.628,333.203 363.934,333.041 364.579 M373.300 365.887 C 373.905 365.978,374.895 365.978,375.500 365.887 C 376.105 365.795,375.610 365.720,374.400 365.720 C 373.190 365.720,372.695 365.795,373.300 365.887 M82.800 366.115 C 82.800 366.179,83.160 366.937,83.600 367.800 C 84.040 368.663,84.400 369.142,84.400 368.865 C 84.400 368.286,83.275 366.000,82.990 366.000 C 82.885 366.000,82.800 366.052,82.800 366.115 M368.146 367.397 C 366.497 368.697,364.389 372.018,364.441 373.235 C 364.477 374.077,364.519 374.047,364.770 372.998 C 365.197 371.222,367.161 368.456,368.772 367.361 C 369.550 366.832,370.009 366.402,369.793 366.404 C 369.577 366.407,368.836 366.854,368.146 367.397 M379.400 366.866 C 379.840 367.108,380.658 367.688,381.219 368.154 C 381.779 368.619,381.646 368.415,380.924 367.700 C 380.202 366.985,379.384 366.405,379.106 366.412 C 378.828 366.419,378.960 366.623,379.400 366.866 M15.200 368.448 C 13.729 369.964,13.398 370.400,13.721 370.400 C 13.787 370.400,14.613 369.590,15.557 368.600 C 16.500 367.610,17.166 366.800,17.036 366.800 C 16.906 366.800,16.079 367.542,15.200 368.448 M64.846 367.200 C 64.839 367.530,65.178 368.430,65.600 369.200 C 66.575 370.981,66.575 370.306,65.600 368.200 C 65.193 367.320,64.854 366.870,64.846 367.200 M312.083 370.653 C 311.579 371.889,311.240 372.973,311.329 373.062 C 311.563 373.296,313.271 369.213,313.124 368.774 C 313.056 368.571,312.588 369.417,312.083 370.653 M159.418 370.030 C 159.708 370.499,164.040 373.293,164.212 373.122 C 164.280 373.053,163.177 372.244,161.760 371.324 C 160.343 370.404,159.289 369.821,159.418 370.030 M330.065 371.417 C 329.395 372.888,329.523 373.202,330.247 371.865 C 330.586 371.240,330.788 370.654,330.696 370.563 C 330.605 370.471,330.321 370.856,330.065 371.417 M31.878 372.195 C 32.244 372.962,32.614 373.519,32.701 373.432 C 32.884 373.249,31.670 370.800,31.396 370.800 C 31.295 370.800,31.512 371.428,31.878 372.195 M84.817 371.090 C 84.808 371.360,85.159 372.170,85.599 372.890 C 86.038 373.611,86.390 374.020,86.382 373.800 C 86.358 373.175,84.836 370.539,84.817 371.090 M12.934 375.200 C 12.934 376.850,13.005 377.525,13.091 376.700 C 13.178 375.875,13.178 374.525,13.091 373.700 C 13.005 372.875,12.934 373.550,12.934 375.200 M166.705 374.415 C 167.863 375.079,169.393 375.715,170.105 375.828 C 171.196 376.001,171.127 375.932,169.666 375.390 C 168.713 375.036,167.363 374.400,166.666 373.975 C 165.970 373.550,165.220 373.204,165.000 373.205 C 164.780 373.206,165.547 373.751,166.705 374.415 M32.909 375.600 C 32.909 376.590,32.987 376.995,33.082 376.500 C 33.178 376.005,33.178 375.195,33.082 374.700 C 32.987 374.205,32.909 374.610,32.909 375.600 M229.800 374.827 C 229.140 375.250,228.870 375.593,229.200 375.589 C 229.530 375.585,230.250 375.230,230.800 374.800 C 232.079 373.800,231.374 373.819,229.800 374.827 M173.200 376.655 C 174.190 376.986,176.800 377.320,179.000 377.398 L 183.000 377.540 179.000 377.213 C 176.800 377.033,174.493 376.687,173.874 376.443 C 173.255 376.199,172.445 376.012,172.074 376.027 C 171.703 376.041,172.210 376.324,173.200 376.655 M309.386 377.227 C 309.037 377.902,308.807 378.614,308.876 378.809 C 308.944 379.004,309.302 378.451,309.670 377.582 C 310.465 375.706,310.287 375.484,309.386 377.227 M327.634 377.638 C 327.208 378.607,326.753 379.940,326.623 380.600 C 326.449 381.489,326.544 381.386,326.989 380.200 C 327.320 379.320,327.880 378.093,328.234 377.472 C 328.588 376.852,328.773 376.239,328.644 376.110 C 328.515 375.982,328.061 376.669,327.634 377.638 M222.800 376.800 C 221.996 377.057,221.957 377.123,222.600 377.132 C 223.040 377.138,223.760 376.989,224.200 376.800 C 225.219 376.362,224.168 376.362,222.800 376.800 M209.700 377.498 C 211.845 377.570,215.355 377.570,217.500 377.498 C 219.645 377.426,217.890 377.367,213.600 377.367 C 209.310 377.367,207.555 377.426,209.700 377.498 M31.894 378.903 L 31.188 380.200 31.994 379.256 C 32.680 378.452,33.046 377.594,32.700 377.603 C 32.645 377.604,32.282 378.189,31.894 378.903 M87.628 378.600 C 87.628 378.820,87.886 379.450,88.200 380.000 C 88.514 380.550,88.772 380.820,88.772 380.600 C 88.772 380.380,88.514 379.750,88.200 379.200 C 87.886 378.650,87.628 378.380,87.628 378.600 M13.216 379.120 C 13.192 379.901,14.251 381.784,15.074 382.422 C 15.766 382.960,15.768 382.948,15.118 382.181 C 14.742 381.738,14.165 380.752,13.833 379.988 C 13.502 379.225,13.224 378.834,13.216 379.120 M69.614 379.254 C 69.606 379.394,69.863 380.114,70.184 380.854 C 70.506 381.594,70.769 381.930,70.770 381.600 C 70.772 381.024,69.643 378.734,69.614 379.254 M364.800 379.514 C 364.800 379.713,365.186 380.219,365.658 380.638 C 366.510 381.395,366.513 381.394,366.056 380.522 C 365.546 379.550,364.800 378.951,364.800 379.514 M307.845 381.450 C 306.830 384.428,307.472 390.661,308.670 389.463 C 308.787 389.347,308.593 388.840,308.241 388.337 C 307.403 387.141,307.408 383.697,308.250 381.591 C 308.608 380.698,308.808 379.875,308.695 379.762 C 308.582 379.649,308.200 380.408,307.845 381.450 M29.400 382.080 C 28.231 383.297,28.116 383.507,28.973 382.858 C 29.986 382.091,31.480 380.387,31.123 380.407 C 31.055 380.410,30.280 381.163,29.400 382.080 M380.515 382.810 C 379.589 383.685,378.959 384.398,379.115 384.397 C 379.427 384.393,382.400 381.658,382.400 381.375 C 382.400 381.063,382.225 381.196,380.515 382.810 M367.200 382.567 C 368.111 383.575,369.600 384.639,369.600 384.281 C 369.600 384.200,368.835 383.532,367.900 382.797 C 366.408 381.623,366.322 381.595,367.200 382.567 M325.479 383.174 C 324.504 384.825,324.653 385.251,325.657 383.683 C 326.120 382.959,326.423 382.290,326.329 382.196 C 326.235 382.102,325.852 382.542,325.479 383.174 M89.309 384.800 C 89.309 385.790,89.387 386.195,89.482 385.700 C 89.578 385.205,89.578 384.395,89.482 383.900 C 89.387 383.405,89.309 383.810,89.309 384.800 M26.000 384.225 C 25.034 384.591,24.855 384.762,25.424 384.777 C 25.876 384.790,26.596 384.536,27.024 384.213 C 27.935 383.523,27.853 383.524,26.000 384.225 M71.219 384.400 C 71.211 384.730,71.563 385.540,72.000 386.200 C 73.013 387.730,73.020 387.383,72.016 385.371 C 71.585 384.507,71.226 384.070,71.219 384.400 M21.305 385.087 C 21.914 385.179,22.814 385.177,23.305 385.082 C 23.797 384.987,23.300 384.911,22.200 384.914 C 21.100 384.917,20.697 384.995,21.305 385.087 M372.938 385.267 C 373.784 385.452,375.044 385.450,375.738 385.264 C 376.754 384.990,376.455 384.925,374.200 384.928 C 371.730 384.931,371.581 384.971,372.938 385.267 M324.284 386.003 C 323.727 388.207,321.767 390.584,319.587 391.700 C 318.406 392.305,317.725 392.800,318.074 392.800 C 320.155 392.800,325.261 387.183,324.703 385.509 C 324.611 385.232,324.422 385.455,324.284 386.003 M88.641 387.700 C 88.287 388.996,86.657 390.699,84.699 391.819 C 83.764 392.353,83.180 392.792,83.400 392.793 C 84.843 392.803,89.200 388.710,89.200 387.345 C 89.200 386.514,88.916 386.694,88.641 387.700 M73.200 388.658 C 73.200 388.874,73.785 389.579,74.500 390.225 L 75.800 391.400 74.600 390.002 C 73.940 389.233,73.355 388.528,73.300 388.435 C 73.245 388.343,73.200 388.443,73.200 388.658 M76.200 391.599 C 76.704 392.416,79.086 393.203,80.887 393.148 C 82.496 393.098,82.460 393.077,80.312 392.802 C 79.054 392.640,77.547 392.195,76.963 391.813 C 76.379 391.430,76.036 391.334,76.200 391.599 M314.505 393.087 C 315.114 393.179,316.014 393.177,316.505 393.082 C 316.997 392.987,316.500 392.911,315.400 392.914 C 314.300 392.917,313.897 392.995,314.505 393.087 " stroke="none" fill="#f8c23a" fill-rule="evenodd"></path><path id="path2" d="M0.000 200.000 L 0.000 400.000 200.000 400.000 L 400.000 400.000 400.000 200.000 L 400.000 0.000 200.000 0.000 L 0.000 0.000 0.000 200.000 M60.428 8.236 C 61.591 9.079,62.393 10.157,63.233 12.008 L 64.410 14.600 64.305 24.400 C 64.174 36.599,64.190 36.632,73.766 44.855 L 75.331 46.200 86.166 46.400 C 96.468 46.590,97.059 46.642,98.200 47.465 C 103.226 51.089,103.968 55.724,100.195 59.921 C 97.802 62.583,96.701 62.796,85.280 62.814 C 74.957 62.830,75.793 62.603,71.333 66.600 C 63.860 73.297,64.403 71.733,64.401 86.550 L 64.400 98.900 63.373 101.187 C 60.765 107.000,54.210 108.981,49.863 105.270 C 46.017 101.987,45.825 100.977,46.161 85.746 L 46.408 74.491 45.304 73.213 C 43.945 71.639,36.786 64.423,35.765 63.600 C 35.159 63.111,32.977 62.963,23.949 62.800 L 12.877 62.600 11.138 61.350 C 6.459 57.985,6.115 51.892,10.410 48.440 C 12.834 46.492,13.429 46.400,23.566 46.400 C 32.555 46.400,35.600 46.093,35.600 45.188 C 35.600 45.004,35.925 44.751,36.323 44.624 C 37.346 44.300,43.688 38.060,44.912 36.174 C 45.934 34.600,45.934 34.598,46.087 23.600 C 46.253 11.640,46.303 11.360,48.664 9.125 C 51.629 6.320,57.201 5.899,60.428 8.236 M352.000 15.942 C 360.373 18.176,364.983 19.854,366.861 21.353 C 367.445 21.819,368.853 22.740,369.991 23.400 C 372.543 24.881,379.414 31.495,381.211 34.200 C 381.942 35.300,382.837 36.650,383.201 37.200 C 384.944 39.838,386.768 43.559,387.025 45.000 C 387.181 45.880,387.652 47.481,388.071 48.557 C 390.096 53.756,389.945 67.962,387.794 74.800 C 386.204 79.853,385.238 81.743,380.982 88.126 C 379.261 90.707,373.737 96.199,371.337 97.714 C 370.485 98.251,369.544 98.986,369.245 99.346 C 368.946 99.706,368.516 100.000,368.289 100.000 C 368.061 100.000,367.274 100.459,366.539 101.019 C 365.111 102.109,360.271 104.157,358.059 104.608 C 357.322 104.758,355.790 105.307,354.655 105.826 C 349.992 107.961,335.689 107.954,330.218 105.814 C 328.888 105.294,327.170 104.744,326.400 104.592 C 325.630 104.440,324.460 104.076,323.800 103.783 C 323.140 103.490,321.933 102.981,321.117 102.653 C 313.613 99.629,304.201 90.533,300.013 82.258 C 299.361 80.969,298.662 79.709,298.459 79.458 C 298.089 78.999,296.732 74.574,295.927 71.200 C 295.385 68.928,295.376 55.202,295.914 52.800 C 297.888 43.996,300.983 37.248,305.049 32.882 C 306.012 31.848,306.800 30.905,306.800 30.786 C 306.800 30.230,314.498 23.955,316.614 22.786 C 317.926 22.062,319.360 21.160,319.800 20.784 C 320.240 20.407,321.320 19.869,322.200 19.589 C 323.080 19.308,324.160 18.854,324.600 18.579 C 325.040 18.304,326.390 17.877,327.600 17.630 C 328.810 17.383,330.657 16.900,331.704 16.557 C 335.626 15.272,348.072 14.895,352.000 15.942 M209.878 19.087 C 211.680 19.719,213.480 20.521,213.878 20.871 C 214.275 21.221,215.323 21.870,216.207 22.314 C 218.182 23.306,223.038 27.523,229.466 33.827 C 238.147 42.341,245.269 49.247,253.364 57.000 C 257.729 61.180,262.794 66.040,264.620 67.800 C 267.999 71.056,278.268 80.819,280.608 83.000 C 285.962 87.987,292.385 94.089,296.189 97.800 C 298.670 100.220,303.361 104.720,306.613 107.800 C 312.465 113.342,321.433 121.959,326.179 126.600 C 328.519 128.889,339.159 138.944,341.765 141.331 C 342.444 141.952,344.086 143.482,345.414 144.731 C 346.742 145.979,350.318 149.340,353.360 152.200 C 356.403 155.060,360.379 158.840,362.197 160.600 C 366.560 164.823,370.539 168.567,375.571 173.184 C 380.951 178.119,383.514 182.149,385.214 188.345 C 387.318 196.013,384.625 204.705,377.948 211.800 C 373.648 216.368,372.524 217.607,367.200 223.643 C 365.990 225.015,364.529 226.648,363.953 227.273 C 363.377 227.897,362.207 229.250,361.353 230.278 C 360.499 231.307,359.418 232.520,358.952 232.974 C 358.485 233.428,357.044 235.060,355.749 236.600 C 354.455 238.140,352.644 240.210,351.726 241.200 C 350.241 242.799,348.511 244.782,341.650 252.747 C 340.632 253.928,338.900 255.917,337.800 257.167 C 336.700 258.416,333.730 261.824,331.200 264.739 C 328.670 267.654,325.825 270.886,324.878 271.920 C 323.930 272.954,322.891 274.295,322.567 274.900 C 322.244 275.505,321.812 276.000,321.608 276.000 C 321.404 276.000,320.643 276.776,319.918 277.725 C 318.529 279.543,314.756 283.867,311.400 287.487 C 306.636 292.626,305.933 291.228,321.407 307.400 C 325.617 311.800,330.829 317.335,332.990 319.700 C 337.866 325.036,337.724 325.023,345.600 320.795 C 347.831 319.598,352.311 317.600,352.766 317.600 C 352.995 317.600,355.104 316.610,357.453 315.400 C 359.803 314.190,361.888 313.200,362.087 313.200 C 362.584 313.200,368.458 310.372,369.200 309.776 C 371.166 308.194,376.676 307.598,379.723 308.636 C 387.014 311.120,386.419 322.409,378.889 324.480 C 378.070 324.705,375.420 325.828,373.000 326.975 C 370.580 328.122,367.430 329.565,366.000 330.181 C 364.570 330.798,362.410 331.794,361.200 332.395 C 359.990 332.995,358.471 333.615,357.824 333.770 C 357.178 333.926,356.188 334.378,355.624 334.774 C 355.061 335.171,354.150 335.629,353.600 335.793 C 351.657 336.371,342.800 340.844,342.800 341.247 C 342.800 341.472,342.283 342.408,341.652 343.328 C 341.021 344.248,340.371 345.630,340.207 346.400 C 340.044 347.170,339.481 348.750,338.955 349.912 C 338.430 351.073,337.999 352.243,337.998 352.512 C 337.998 352.780,337.458 354.080,336.800 355.400 C 336.142 356.720,335.602 358.097,335.602 358.460 C 335.601 358.823,335.152 360.083,334.604 361.260 C 334.056 362.437,333.606 363.673,333.604 364.006 C 333.602 364.339,333.214 365.329,332.742 366.206 C 331.661 368.216,329.200 374.282,329.200 374.938 C 329.200 375.209,328.844 376.129,328.409 376.983 C 327.974 377.836,327.418 379.179,327.173 379.967 C 326.721 381.428,325.549 384.115,323.703 387.928 C 319.794 396.000,307.200 394.064,307.200 385.391 C 307.200 383.421,308.622 378.567,309.833 376.400 C 310.420 375.350,311.952 371.323,313.181 367.600 C 313.580 366.390,314.398 364.320,314.998 363.000 C 315.598 361.680,316.413 359.880,316.809 359.000 C 317.206 358.120,317.658 356.770,317.814 356.000 C 317.970 355.230,318.411 353.970,318.795 353.200 C 319.178 352.430,319.607 351.170,319.747 350.400 C 319.888 349.630,320.541 348.190,321.200 347.200 C 321.858 346.210,322.397 345.166,322.398 344.880 C 322.399 344.594,322.689 343.801,323.043 343.117 C 323.396 342.434,324.010 340.704,324.407 339.273 L 325.128 336.671 324.195 335.235 C 321.585 331.222,296.990 307.200,295.491 307.200 C 294.420 307.200,293.909 307.422,293.584 308.030 C 293.339 308.487,292.838 309.180,292.470 309.569 C 291.335 310.771,287.844 314.878,287.000 316.005 C 286.560 316.593,285.394 317.917,284.409 318.949 C 283.424 319.980,282.468 321.093,282.284 321.421 C 282.100 321.750,281.278 322.704,280.457 323.542 C 279.637 324.379,278.255 325.950,277.387 327.032 C 276.518 328.114,274.366 330.633,272.604 332.629 C 270.842 334.625,268.410 337.407,267.200 338.810 C 265.990 340.214,264.171 342.271,263.158 343.381 C 262.146 344.492,260.036 346.930,258.470 348.800 C 256.903 350.670,255.212 352.668,254.711 353.239 C 254.210 353.811,252.900 355.323,251.800 356.600 C 243.356 366.401,238.019 371.229,232.843 373.751 C 231.830 374.245,230.640 374.860,230.200 375.119 C 226.745 377.151,223.883 377.377,199.918 377.507 L 177.235 377.631 173.042 376.601 C 168.992 375.606,164.762 373.722,161.114 371.287 C 160.218 370.689,159.177 370.016,158.799 369.791 C 157.157 368.813,152.071 363.959,149.597 361.009 C 148.117 359.244,146.256 357.080,145.460 356.200 C 142.911 353.379,142.667 353.093,136.115 345.252 C 131.589 339.836,130.724 338.838,126.000 333.581 C 120.689 327.672,119.792 326.649,117.425 323.800 C 116.145 322.260,113.399 319.165,111.322 316.922 C 109.245 314.680,107.047 312.160,106.438 311.322 C 101.851 305.015,101.646 305.081,91.384 316.171 C 88.753 319.015,83.597 324.352,79.926 328.031 C 72.331 335.643,72.251 335.792,73.379 340.309 C 73.748 341.789,74.298 343.382,74.601 343.849 C 75.158 344.708,78.000 352.873,78.000 353.615 C 78.000 353.836,78.439 354.688,78.976 355.509 C 79.512 356.329,80.078 357.540,80.233 358.200 C 80.388 358.860,80.917 360.210,81.408 361.200 C 81.899 362.190,82.434 363.630,82.597 364.400 C 82.759 365.170,83.066 366.015,83.277 366.278 C 83.649 366.740,84.054 367.780,87.068 376.000 C 90.591 385.608,90.223 388.879,85.280 391.889 C 78.870 395.793,73.677 391.955,70.009 380.600 C 69.298 378.400,68.195 375.536,67.558 374.236 C 66.921 372.936,66.400 371.624,66.400 371.320 C 66.400 371.017,66.062 370.100,65.649 369.284 C 65.236 368.468,64.772 367.170,64.618 366.400 C 64.465 365.630,63.921 364.100,63.410 363.000 C 62.900 361.900,62.009 359.983,61.431 358.741 C 60.854 357.498,60.100 355.518,59.756 354.341 C 59.413 353.163,58.903 351.840,58.623 351.400 C 58.343 350.960,57.813 349.610,57.444 348.400 C 56.380 344.903,54.314 341.057,53.200 340.501 C 52.650 340.227,50.040 338.999,47.400 337.773 C 44.760 336.546,41.697 335.106,40.594 334.572 C 39.491 334.037,38.428 333.600,38.233 333.600 C 38.037 333.600,36.960 333.173,35.839 332.652 C 34.717 332.130,32.270 331.029,30.400 330.206 C 27.121 328.761,23.550 327.149,20.200 325.600 C 19.320 325.194,18.150 324.739,17.600 324.590 C 13.131 323.382,10.837 317.979,12.825 313.341 C 14.659 309.062,19.551 307.096,24.600 308.607 C 26.493 309.174,28.198 309.962,39.200 315.349 C 41.730 316.588,43.968 317.602,44.174 317.601 C 44.379 317.600,45.279 317.950,46.174 318.377 C 47.068 318.805,48.819 319.532,50.064 319.992 C 51.309 320.453,52.546 321.093,52.813 321.415 C 53.080 321.737,53.478 322.000,53.699 322.000 C 53.920 322.000,55.154 322.473,56.443 323.051 C 59.119 324.252,60.517 324.001,62.044 322.046 C 62.493 321.471,64.422 319.377,66.330 317.393 C 68.239 315.409,71.510 311.915,73.600 309.629 C 75.690 307.342,78.300 304.537,79.400 303.395 C 83.168 299.482,88.600 293.522,88.936 292.932 C 89.455 292.021,88.555 290.316,86.193 287.737 C 85.016 286.452,83.816 285.126,83.526 284.792 C 78.932 279.487,77.613 277.933,76.600 276.631 C 75.940 275.783,74.699 274.353,73.843 273.452 C 72.986 272.552,71.301 270.597,70.098 269.108 C 68.894 267.618,67.793 266.400,67.651 266.400 C 67.508 266.400,66.583 265.372,65.596 264.116 C 64.063 262.167,62.143 259.899,58.899 256.205 C 56.907 253.937,50.686 246.674,48.466 244.025 C 47.072 242.361,45.632 240.704,45.266 240.342 C 44.048 239.138,36.487 230.457,33.876 227.263 C 33.037 226.239,32.110 225.213,31.815 224.984 C 31.519 224.756,30.607 223.766,29.788 222.784 C 27.568 220.127,22.946 215.069,19.984 212.059 C 15.971 207.979,13.727 204.384,12.827 200.592 C 11.502 195.007,11.483 194.174,12.565 188.693 C 14.187 180.472,15.059 179.285,28.797 166.600 C 36.133 159.826,41.650 154.661,44.393 152.000 C 45.771 150.663,56.337 140.590,61.400 135.787 C 62.720 134.535,66.140 131.232,69.000 128.448 C 71.860 125.664,76.623 121.139,79.585 118.393 C 82.548 115.647,85.627 112.770,86.428 112.000 C 91.682 106.951,93.074 105.591,93.662 104.937 C 94.026 104.532,96.881 101.770,100.006 98.800 C 103.132 95.830,106.524 92.585,107.545 91.590 C 108.565 90.594,113.000 86.439,117.400 82.356 C 121.800 78.274,126.411 73.958,127.647 72.767 C 128.884 71.575,132.467 68.170,135.610 65.200 C 142.291 58.887,142.891 58.314,153.820 47.800 C 163.527 38.461,165.707 36.353,172.715 29.530 C 175.579 26.742,178.434 24.175,179.061 23.825 C 180.670 22.928,181.612 22.335,183.070 21.303 C 188.303 17.601,202.326 16.442,209.878 19.087 M53.078 52.767 C 51.195 54.851,51.143 56.207,52.874 58.161 C 54.224 59.687,56.312 60.141,57.190 59.100 C 57.423 58.825,58.060 58.096,58.606 57.479 C 59.991 55.918,59.881 54.481,58.255 52.902 C 56.126 50.834,54.854 50.801,53.078 52.767 M168.600 221.161 C 156.484 221.439,156.570 221.416,152.953 225.435 C 151.677 226.853,146.125 232.566,140.616 238.129 C 135.107 243.692,127.720 251.282,124.200 254.994 C 120.680 258.707,117.510 262.047,117.155 262.417 C 114.753 264.922,114.792 266.014,117.296 266.363 C 119.650 266.690,282.269 266.265,282.603 265.930 C 283.354 265.180,281.390 262.891,271.161 252.600 C 265.039 246.440,255.928 237.253,250.915 232.185 C 245.902 227.117,241.154 222.595,240.363 222.136 C 238.785 221.219,193.059 220.598,168.600 221.161 M377.956 366.183 C 386.978 368.585,386.221 382.640,376.944 384.970 C 370.209 386.662,364.728 382.690,364.460 375.923 C 364.159 368.322,370.041 364.077,377.956 366.183 M26.718 366.571 C 32.156 368.490,34.634 375.542,31.463 380.072 C 25.501 388.589,13.572 386.252,12.912 376.439 C 12.362 368.269,18.697 363.741,26.718 366.571 " stroke="none" fill="#fbf3eb" fill-rule="evenodd"></path></g></svg>